<svg width="265" height="128" viewBox="0 0 265 128" fill="none" xmlns="http://www.w3.org/2000/svg">
<mask id="mask0_7011_45130" style="mask-type:luminance" maskUnits="userSpaceOnUse" x="113" y="0" width="153" height="128">
<path fill-rule="evenodd" clip-rule="evenodd" d="M113.578 0H265.005V128H113.578V0Z" fill="white"/>
</mask>
<g mask="url(#mask0_7011_45130)">
<path fill-rule="evenodd" clip-rule="evenodd" d="M265.006 55.5267C265.006 52.9329 260.403 51.378 256.299 51.378C254.699 51.3732 255.687 51.378 249.741 51.378C243.79 51.378 236.362 49.495 231.773 46.8013C228.452 44.8565 210.868 33.7655 208.004 32.0275C206.013 30.8126 205.387 29.6334 205.387 27.7338C205.387 25.6796 206.314 24.769 209.395 22.4177C212.475 20.0735 214.454 18.4068 217.873 15.851C221.681 13.0028 222.626 9.0062 222.626 6.23641C222.626 -3.40197 212.272 1.00592 199.01 1.00592C197.237 1.00592 149.054 0.98452 147.457 0.98452C146.735 0.98452 143.905 0.896552 143.905 2.94596C143.905 7.4109 154.67 11.4075 159.327 11.4075C164.689 11.4075 171.307 8.97054 178.383 8.97054C181.128 8.97054 190.611 8.93963 193.903 8.93963C199.639 8.93963 201.921 9.74085 201.921 12.5724C201.921 14.3556 200.991 15.6584 196.234 18.3759C185.912 24.2579 157.495 39.5832 141.758 47.6548C136.819 50.1892 132.96 51.5301 129.871 51.5301C128.626 51.5301 124.631 51.5325 120.576 51.5325C117.362 51.5325 113.578 51.378 113.578 53.1944C113.578 57.8685 123.35 62.4476 130.086 62.4476C136.829 62.4476 146.205 59.3973 151.605 59.3973H180.727C186.007 59.3973 187.472 61.7748 187.472 66.7414C187.472 67.7756 187.399 68.0751 187.399 71.4155C187.399 76.2371 186.477 78.9617 179.907 78.9617H148.978C145.498 78.9617 142.511 78.8452 142.511 81.0111C142.511 85.331 150.155 88.9948 157.546 88.9948C164.943 88.9948 165.036 86.7147 176.265 86.7147H204.655C213.407 86.7147 214.684 88.9876 214.684 96.1225V117.14C214.684 119.034 215.694 128 219.947 128C225.986 128 229.149 118.314 229.149 109.731C229.149 101.158 229.014 98.0697 229.014 94.8862C229.014 87.9035 232.962 78.9736 223.614 78.9736C221.845 78.9736 213.167 78.9284 207.989 78.9284C201.446 78.9284 199.746 77.2309 199.746 71.7508C199.746 67.4118 199.751 70.3457 199.751 67.136C199.751 61.8414 202.077 59.3973 207.006 59.3973H226.441H257.243C258.141 59.3973 265.006 59.3973 265.006 55.5267ZM218.377 51.3394C218.377 51.3394 167.191 51.3442 164.145 51.3442C161.105 51.3442 160.097 50.8687 163.006 49.0832C166.095 47.1931 175.886 41.5917 180.912 39.383C183.747 38.1372 186.137 37.2266 190.097 37.2266C194.059 37.2266 198.379 39.1595 199.758 39.8965C205.296 42.8612 218.377 51.3394 218.377 51.3394Z" fill="#730000"/>
</g>
<path fill-rule="evenodd" clip-rule="evenodd" d="M42.7663 38.7729C39.8034 38.7729 38.3906 36.4455 38.3906 33.5684V30.3201C38.3906 27.4454 40.7943 25.1133 43.7596 25.1133H65.0664C68.0317 25.1133 70.4354 27.4454 70.4354 30.3201V33.5684C70.4354 36.4455 68.0317 38.7729 65.0664 38.7729H42.7663ZM67.1652 61.232C60.9525 61.232 59.4122 59.6828 59.4122 50.9396C59.4122 46.5562 60.6189 44.9713 65.0313 44.9713C69.4487 44.9713 73.5398 44.9856 75.3524 44.9856C79.0805 44.9856 81.055 43.0675 81.055 39.0767C81.055 36.6042 81.1163 7.00278 81.1163 7.00278C81.2365 1.80784 78.173 1.32713 73.9151 0.577518C71.9235 0.222939 66.4564 -0.847937 66.4564 1.32713C66.4564 5.81767 71.769 4.57308 71.769 9.37774C71.769 10.4177 71.7444 10.9484 71.7444 12.8926C71.7444 15.5722 70.1919 18.5825 65.7672 18.5825C63.9448 18.5825 57.217 18.5325 53.2657 18.5325C49.3119 18.5325 45.547 18.5563 42.638 18.5563C39.2705 18.5563 37.2568 17.2594 37.2568 12.5095C37.2568 10.7461 37.2617 10.4272 37.2617 8.94939C37.2617 5.53687 33.3349 4.44457 28.8832 3.62833C25.9031 3.08337 21.3386 3.01436 21.3386 5.4155C21.3386 9.65379 27.9365 8.43537 27.9365 15.0748V39.5765C27.9365 43.5506 29.0132 44.9856 32.6849 44.9856C34.2007 44.9856 39.1012 44.9713 41.7036 44.9713C46.9475 44.9713 48.137 45.7637 48.137 51.9772C48.137 58.2073 46.4471 60.6703 40.693 60.6703C33.0896 60.6703 7.37042 60.6227 5.63144 60.6227C3.8851 60.6227 0 61.8697 0 63.3713C0 67.1194 7.43909 68.8304 9.60484 68.4568C14.8463 67.5501 17.9367 67.5501 20.7524 67.5501C27.804 67.5501 28.7974 70.5129 28.7974 74.3918C28.7974 77.3355 28.7458 82.1926 28.7458 84.8912C28.7458 90.455 31.7406 92.4444 38.4758 92.4444C38.4758 92.4444 81.9747 92.3968 86.446 92.3968C89.6713 92.3968 91.8714 90.9571 91.8714 89.3817C91.8714 85.9787 88.2022 82.8756 85.0161 82.8756C80.6061 82.8756 75.2322 84.9602 63.9473 84.9602H44.691C41.4632 84.9602 40.6513 82.9398 40.6513 80.7219C40.6513 78.5111 40.6366 76.0886 40.6366 74.3871C40.6366 69.4896 43.754 67.6596 49.746 67.6596H93.1714C98.8592 67.6596 105.999 68.4401 105.999 64.0948C105.999 56.7557 82.4922 61.232 67.1652 61.232Z" fill="#730000"/>
</svg>
